<svg width="67" height="31" viewBox="0 0 67 31" fill="none" xmlns="http://www.w3.org/2000/svg">
<path opacity="0.9" fill-rule="evenodd" clip-rule="evenodd" d="M13.0335 0C5.83531 0 0 5.83531 0 13.0335C0 20.2317 5.8353 26.0671 13.0335 26.0671H26.0671V22.3746H20.432L19.1847 26.067H16.2522L21.6045 10.9481H25.0237L26.0671 13.9228V13.0335C26.0671 5.83531 20.2317 0 13.0335 0ZM25.4123 20.1678L23.3596 14.0584H23.2411L21.1774 20.1678H25.4123Z" fill="#131313"/>
<path opacity="0.9" d="M49.6445 26.0662V15.0347H52.5015L52.564 17.1409L52.1261 17.266C52.2651 16.9045 52.4598 16.5778 52.71 16.2859C52.9742 15.98 53.2731 15.7228 53.6067 15.5143C53.9404 15.3058 54.2949 15.1389 54.6703 15.0138C55.0595 14.8887 55.4418 14.8261 55.8172 14.8261C56.4011 14.8261 56.9155 14.9165 57.3604 15.0972C57.8192 15.278 58.2084 15.563 58.5282 15.9522C58.8479 16.3415 59.0912 16.8489 59.2581 17.4745L58.8201 17.3911L58.9661 17.0783C59.1468 16.7586 59.3762 16.4597 59.6543 16.1816C59.9323 15.9036 60.2451 15.6672 60.5927 15.4726C60.9403 15.2641 61.3017 15.1042 61.6771 14.993C62.0524 14.8817 62.4209 14.8261 62.7823 14.8261C63.6443 14.8261 64.3533 14.9999 64.9094 15.3475C65.4794 15.695 65.9034 16.2094 66.1815 16.8906C66.4734 17.558 66.6194 18.3921 66.6194 19.3931V26.0662H63.6582V19.6016C63.6582 18.8509 63.5053 18.2948 63.1994 17.9333C62.9074 17.5719 62.4556 17.3911 61.8439 17.3911C61.5242 17.3911 61.2253 17.4467 60.9472 17.558C60.6692 17.6553 60.4328 17.8013 60.2382 17.9959C60.0435 18.1905 59.8906 18.413 59.7794 18.6632C59.6682 18.9134 59.6126 19.1915 59.6126 19.4973V26.0662H56.6514V19.5599C56.6514 18.8648 56.4915 18.3295 56.1717 17.9542C55.8659 17.5788 55.421 17.3911 54.8371 17.3911C54.5312 17.3911 54.2393 17.4467 53.9612 17.558C53.6832 17.6553 53.4468 17.8013 53.2522 17.9959C53.0576 18.1766 52.9047 18.3991 52.7934 18.6632C52.6822 18.9134 52.6266 19.1915 52.6266 19.4973V26.0662H49.6445Z" fill="#131313"/>
<path opacity="0.9" d="M44.2084 26.0663V19.1637C44.2084 18.5798 44.0277 18.1349 43.6662 17.8291C43.3186 17.5093 42.8459 17.3495 42.2481 17.3495C41.6781 17.3495 41.1707 17.4607 40.7258 17.6831C40.2809 17.9056 39.8639 18.2531 39.4746 18.7258L37.6603 16.9741C38.3277 16.279 39.0714 15.7437 39.8917 15.3684C40.7258 14.993 41.6295 14.8053 42.6027 14.8053C43.4924 14.8053 44.264 14.9443 44.9174 15.2224C45.5847 15.5004 46.0991 15.9175 46.4606 16.4736C46.822 17.0297 47.0028 17.7318 47.0028 18.5798V26.0663H44.2084ZM41.1846 26.2748C40.4895 26.2748 39.8569 26.1358 39.2869 25.8577C38.7308 25.5797 38.2859 25.1974 37.9523 24.7108C37.6325 24.2103 37.4727 23.6264 37.4727 22.9591C37.4727 22.3891 37.5769 21.8886 37.7855 21.4576C37.994 21.0127 38.2999 20.6513 38.703 20.3732C39.1201 20.0813 39.6345 19.8588 40.2462 19.7059C40.8718 19.553 41.5947 19.4765 42.415 19.4765H45.6681L45.4805 21.4576H42.3733C42.0396 21.4576 41.7407 21.4854 41.4766 21.541C41.2263 21.5967 41.0108 21.687 40.8301 21.8121C40.6633 21.9373 40.5312 22.0832 40.4339 22.2501C40.3505 22.4169 40.3088 22.6115 40.3088 22.834C40.3088 23.0703 40.3713 23.2788 40.4964 23.4596C40.6216 23.6403 40.7884 23.7793 40.9969 23.8766C41.2194 23.974 41.4696 24.0226 41.7477 24.0226C42.1508 24.0226 42.5331 23.9531 42.8946 23.8141C43.27 23.6751 43.6036 23.4804 43.8956 23.2302C44.1875 22.9799 44.4169 22.6949 44.5837 22.3752L45.1468 23.8558C44.8548 24.3285 44.5003 24.7456 44.0833 25.107C43.6662 25.4685 43.2144 25.7535 42.7278 25.962C42.2412 26.1705 41.7268 26.2748 41.1846 26.2748Z" fill="#131313"/>
<path opacity="0.9" d="M29.4224 26.0663V15.0347H32.2793L32.3836 18.5798L31.8831 17.8291C32.0638 17.273 32.3349 16.7656 32.6964 16.3068C33.0718 15.848 33.5097 15.4865 34.0102 15.2224C34.5246 14.9443 35.0598 14.8053 35.6159 14.8053C35.8661 14.8053 36.0955 14.8262 36.3041 14.8679C36.5265 14.8957 36.7142 14.9443 36.8671 15.0138L36.0747 18.2462C35.9217 18.1767 35.7202 18.1141 35.4699 18.0585C35.2336 17.989 34.9903 17.9542 34.74 17.9542C34.4203 17.9542 34.1144 18.0168 33.8225 18.1419C33.5444 18.2531 33.2942 18.4199 33.0718 18.6424C32.8632 18.8509 32.6964 19.1012 32.5713 19.3931C32.46 19.6851 32.4044 20.0118 32.4044 20.3732V26.0663H29.4224Z" fill="#131313"/>
<path d="M65.1021 30.2379V28.0483H65.5316V28.4987L65.4566 28.5488C65.4844 28.4515 65.5386 28.3625 65.6192 28.2818C65.6999 28.1984 65.7958 28.1317 65.907 28.0817C66.0182 28.0288 66.1322 28.0024 66.249 28.0024C66.4158 28.0024 66.5549 28.0358 66.6661 28.1025C66.7773 28.1665 66.8607 28.2652 66.9163 28.3986C66.9719 28.5321 66.9997 28.7003 66.9997 28.9033V30.2379H66.5701V28.9325C66.5701 28.8074 66.5535 28.7045 66.5201 28.6238C66.4867 28.5404 66.4353 28.4807 66.3658 28.4445C66.2963 28.4056 66.2101 28.3889 66.1072 28.3945C66.0238 28.3945 65.9473 28.4084 65.8778 28.4362C65.8083 28.4612 65.7471 28.4973 65.6943 28.5446C65.6442 28.5919 65.6039 28.6475 65.5733 28.7114C65.5455 28.7726 65.5316 28.8393 65.5316 28.9116V30.2379H65.3189C65.2828 30.2379 65.2466 30.2379 65.2105 30.2379C65.1743 30.2379 65.1382 30.2379 65.1021 30.2379Z" fill="#131313"/>
<path d="M61.8116 30.2796C61.5975 30.2796 61.4057 30.231 61.236 30.1337C61.0692 30.0336 60.9371 29.8987 60.8398 29.7291C60.7425 29.5567 60.6938 29.3607 60.6938 29.141C60.6938 28.9214 60.7425 28.7267 60.8398 28.5571C60.9371 28.3847 61.0692 28.2499 61.236 28.1526C61.4057 28.0525 61.5975 28.0024 61.8116 28.0024C62.0229 28.0024 62.212 28.0525 62.3788 28.1526C62.5484 28.2499 62.6819 28.3847 62.7792 28.5571C62.8765 28.7267 62.9252 28.9214 62.9252 29.141C62.9252 29.3607 62.8765 29.5567 62.7792 29.7291C62.6819 29.8987 62.5484 30.0336 62.3788 30.1337C62.212 30.231 62.0229 30.2796 61.8116 30.2796ZM61.8116 29.8876C61.9423 29.8876 62.0591 29.8556 62.1619 29.7917C62.2648 29.7249 62.3455 29.6359 62.4038 29.5247C62.4622 29.4107 62.49 29.2828 62.4873 29.141C62.49 28.9964 62.4622 28.8685 62.4038 28.7573C62.3455 28.6433 62.2648 28.5543 62.1619 28.4904C62.0591 28.4264 61.9423 28.3945 61.8116 28.3945C61.6809 28.3945 61.5628 28.4278 61.4571 28.4946C61.3542 28.5585 61.2736 28.6475 61.2152 28.7615C61.1568 28.8727 61.129 28.9992 61.1318 29.141C61.129 29.2828 61.1568 29.4107 61.2152 29.5247C61.2736 29.6359 61.3542 29.7249 61.4571 29.7917C61.5628 29.8556 61.6809 29.8876 61.8116 29.8876Z" fill="#131313"/>
<path d="M58.0285 30.2379V28.0482H58.458V30.2379H58.0285ZM58.237 27.5644C58.1452 27.5644 58.0743 27.5408 58.0243 27.4935C57.9742 27.4463 57.9492 27.3795 57.9492 27.2933C57.9492 27.2127 57.9742 27.1474 58.0243 27.0973C58.0771 27.0473 58.148 27.0222 58.237 27.0222C58.3288 27.0222 58.3997 27.0459 58.4497 27.0931C58.4998 27.1404 58.5248 27.2071 58.5248 27.2933C58.5248 27.374 58.4984 27.4393 58.4455 27.4894C58.3955 27.5394 58.326 27.5644 58.237 27.5644Z" fill="#131313"/>
<path d="M54.918 30.2381V27.4896H55.3476V30.2381H54.918ZM54.4634 28.4655V28.0485H55.8564V28.4655H54.4634Z" fill="#131313"/>
<path d="M52.0061 30.2379V28.8115C52.0061 28.6892 51.9616 28.5905 51.8726 28.5154C51.7864 28.4376 51.6766 28.3986 51.5431 28.3986C51.4208 28.3986 51.3096 28.4237 51.2095 28.4737C51.1122 28.5238 51.0232 28.6002 50.9425 28.7031L50.6631 28.4237C50.7938 28.2818 50.9342 28.1762 51.0843 28.1067C51.2373 28.0372 51.4013 28.0024 51.5765 28.0024C51.7433 28.0024 51.8879 28.0302 52.0103 28.0858C52.1326 28.1414 52.2271 28.2235 52.2939 28.3319C52.3606 28.4376 52.394 28.5668 52.394 28.7198V30.2379H52.0061ZM51.3513 30.2796C51.2095 30.2796 51.083 30.2518 50.9717 30.1962C50.8605 30.1406 50.7715 30.0641 50.7048 29.9668C50.6409 29.8667 50.6089 29.7499 50.6089 29.6165C50.6089 29.4997 50.6297 29.3968 50.6714 29.3078C50.7132 29.2189 50.7743 29.1452 50.855 29.0868C50.9384 29.0284 51.0413 28.9839 51.1636 28.9533C51.2887 28.9228 51.4319 28.9075 51.5932 28.9075H52.2021L52.1646 29.2495H51.539C51.4555 29.2495 51.3805 29.2578 51.3137 29.2745C51.2498 29.2884 51.1942 29.312 51.1469 29.3454C51.1024 29.376 51.0691 29.4135 51.0468 29.458C51.0246 29.4997 51.0134 29.5498 51.0134 29.6081C51.0134 29.6693 51.0287 29.7235 51.0593 29.7708C51.0899 29.8153 51.1316 29.85 51.1844 29.8751C51.2373 29.9001 51.2984 29.9126 51.368 29.9126C51.4681 29.9126 51.5626 29.8959 51.6516 29.8626C51.7433 29.8264 51.824 29.7778 51.8935 29.7166C51.9658 29.6554 52.0214 29.5873 52.0603 29.5122L52.1604 29.7917C52.102 29.889 52.0297 29.9738 51.9435 30.0461C51.8573 30.1184 51.7642 30.1754 51.6641 30.2171C51.564 30.2588 51.4597 30.2796 51.3513 30.2796Z" fill="#131313"/>
<path d="M47.2676 30.2794C47.0674 30.2794 46.888 30.2308 46.7295 30.1335C46.5738 30.0334 46.4501 29.8985 46.3583 29.7289C46.2666 29.5565 46.2207 29.3605 46.2207 29.1408C46.2207 28.9212 46.2652 28.7265 46.3542 28.5569C46.4459 28.3845 46.5697 28.2497 46.7254 28.1524C46.8811 28.0523 47.0576 28.0022 47.255 28.0022C47.3635 28.0022 47.4678 28.0203 47.5678 28.0564C47.6707 28.0898 47.7625 28.1371 47.8431 28.1983C47.9238 28.2566 47.9863 28.322 48.0308 28.3943C48.0781 28.4638 48.1017 28.5347 48.1017 28.607L47.9766 28.6153V27.1514H48.4062V30.2377H47.9766V29.7164H48.06C48.06 29.7831 48.0378 29.8499 47.9933 29.9166C47.9488 29.9805 47.889 30.0403 47.8139 30.0959C47.7416 30.1515 47.6568 30.196 47.5595 30.2294C47.465 30.2628 47.3677 30.2794 47.2676 30.2794ZM47.3259 29.9082C47.4566 29.9082 47.572 29.8749 47.6721 29.8082C47.7722 29.7414 47.8501 29.6511 47.9057 29.5371C47.9641 29.4203 47.9933 29.2882 47.9933 29.1408C47.9933 28.9935 47.9641 28.8628 47.9057 28.7488C47.8501 28.632 47.7722 28.5403 47.6721 28.4735C47.572 28.4068 47.4566 28.3734 47.3259 28.3734C47.1953 28.3734 47.0799 28.4068 46.9798 28.4735C46.8797 28.5403 46.8004 28.632 46.742 28.7488C46.6864 28.8628 46.6586 28.9935 46.6586 29.1408C46.6586 29.2882 46.6864 29.4203 46.742 29.5371C46.8004 29.6511 46.8797 29.7414 46.9798 29.8082C47.0799 29.8749 47.1953 29.9082 47.3259 29.9082Z" fill="#131313"/>
<path d="M42.166 30.2379V28.0483H42.5956V28.4987L42.5205 28.5488C42.5483 28.4515 42.6026 28.3625 42.6832 28.2818C42.7638 28.1984 42.8597 28.1317 42.971 28.0817C43.0822 28.0288 43.1962 28.0024 43.313 28.0024C43.4798 28.0024 43.6188 28.0358 43.73 28.1025C43.8413 28.1665 43.9247 28.2652 43.9803 28.3986C44.0359 28.5321 44.0637 28.7003 44.0637 28.9033V30.2379H43.6341V28.9325C43.6341 28.8074 43.6174 28.7045 43.5841 28.6238C43.5507 28.5404 43.4993 28.4807 43.4297 28.4445C43.3602 28.4056 43.274 28.3889 43.1712 28.3945C43.0877 28.3945 43.0113 28.4084 42.9418 28.4362C42.8723 28.4612 42.8111 28.4973 42.7583 28.5446C42.7082 28.5919 42.6679 28.6475 42.6373 28.7114C42.6095 28.7726 42.5956 28.8393 42.5956 28.9116V30.2379H42.3829C42.3467 30.2379 42.3106 30.2379 42.2745 30.2379C42.2383 30.2379 42.2022 30.2379 42.166 30.2379Z" fill="#131313"/>
<path d="M38.6966 30.2796C38.5409 30.2796 38.4047 30.2435 38.2879 30.1712C38.1739 30.0989 38.0849 29.9974 38.021 29.8667C37.9598 29.736 37.9292 29.5803 37.9292 29.3996V28.0483H38.3588V29.2828C38.3588 29.4747 38.4033 29.6262 38.4922 29.7374C38.584 29.8487 38.7105 29.9043 38.8718 29.9043C38.9524 29.9043 39.0261 29.8918 39.0928 29.8667C39.1596 29.8389 39.2166 29.8014 39.2638 29.7541C39.3139 29.7069 39.3528 29.6499 39.3806 29.5831C39.4084 29.5164 39.4223 29.4441 39.4223 29.3662V28.0483H39.8519V30.2379H39.4223V29.7791L39.4974 29.7291C39.464 29.832 39.407 29.9251 39.3264 30.0085C39.2485 30.092 39.1554 30.1587 39.047 30.2087C38.9385 30.256 38.8217 30.2796 38.6966 30.2796Z" fill="#131313"/>
<path d="M34.6383 30.2796C34.4242 30.2796 34.2323 30.231 34.0627 30.1337C33.8959 30.0336 33.7638 29.8987 33.6665 29.7291C33.5692 29.5567 33.5205 29.3607 33.5205 29.141C33.5205 28.9214 33.5692 28.7267 33.6665 28.5571C33.7638 28.3847 33.8959 28.2499 34.0627 28.1526C34.2323 28.0525 34.4242 28.0024 34.6383 28.0024C34.8496 28.0024 35.0387 28.0525 35.2055 28.1526C35.3751 28.2499 35.5086 28.3847 35.6059 28.5571C35.7032 28.7267 35.7518 28.9214 35.7518 29.141C35.7518 29.3607 35.7032 29.5567 35.6059 29.7291C35.5086 29.8987 35.3751 30.0336 35.2055 30.1337C35.0387 30.231 34.8496 30.2796 34.6383 30.2796ZM34.6383 29.8876C34.7689 29.8876 34.8857 29.8556 34.9886 29.7917C35.0915 29.7249 35.1721 29.6359 35.2305 29.5247C35.2889 29.4107 35.3167 29.2828 35.3139 29.141C35.3167 28.9964 35.2889 28.8685 35.2305 28.7573C35.1721 28.6433 35.0915 28.5543 34.9886 28.4904C34.8857 28.4264 34.7689 28.3945 34.6383 28.3945C34.5076 28.3945 34.3894 28.4278 34.2838 28.4946C34.1809 28.5585 34.1002 28.6475 34.0418 28.7615C33.9835 28.8727 33.9557 28.9992 33.9584 29.141C33.9557 29.2828 33.9835 29.4107 34.0418 29.5247C34.1002 29.6359 34.1809 29.7249 34.2838 29.7917C34.3894 29.8556 34.5076 29.8876 34.6383 29.8876Z" fill="#131313"/>
<path d="M29.6035 30.2375V27.3179H30.054V30.2375H29.6035ZM29.8037 28.9946V28.5608H31.3093V28.9946H29.8037ZM29.8037 27.7517V27.3179H31.497V27.7517H29.8037Z" fill="#131313"/>
</svg>
