<svg width="19" height="19" viewBox="0 0 19 19" fill="none" xmlns="http://www.w3.org/2000/svg">
<path d="M16.0312 3.5625H14.25V2.96875C14.2495 2.49648 14.0617 2.0437 13.7277 1.70976C13.3938 1.37582 12.941 1.18799 12.4688 1.1875H6.53125C6.05898 1.18799 5.6062 1.37582 5.27226 1.70976C4.93832 2.0437 4.75049 2.49648 4.75 2.96875V3.5625H2.96875C2.33907 3.56319 1.73538 3.81363 1.29013 4.25888C0.844881 4.70413 0.594438 5.30782 0.59375 5.9375V15.4375C0.59375 16.0674 0.843973 16.6715 1.28937 17.1169C1.73477 17.5623 2.33886 17.8125 2.96875 17.8125H16.0312C16.6611 17.8125 17.2652 17.5623 17.7106 17.1169C18.156 16.6715 18.4062 16.0674 18.4062 15.4375V5.9375C18.4056 5.30782 18.1551 4.70413 17.7099 4.25888C17.2646 3.81363 16.6609 3.56319 16.0312 3.5625ZM12.4688 11.2812H10.0938V13.6562C10.0938 13.8137 10.0312 13.9647 9.91985 14.0761C9.8085 14.1874 9.65747 14.25 9.5 14.25C9.34253 14.25 9.19151 14.1874 9.08016 14.0761C8.96881 13.9647 8.90625 13.8137 8.90625 13.6562V11.2812H6.53125C6.37378 11.2812 6.22275 11.2187 6.11141 11.1073C6.00006 10.996 5.9375 10.845 5.9375 10.6875C5.9375 10.53 6.00006 10.379 6.11141 10.2677C6.22275 10.1563 6.37378 10.0938 6.53125 10.0938H8.90625V7.71875C8.90625 7.56128 8.96881 7.41025 9.08016 7.29891C9.19151 7.18756 9.34253 7.125 9.5 7.125C9.65747 7.125 9.8085 7.18756 9.91985 7.29891C10.0312 7.41025 10.0938 7.56128 10.0938 7.71875V10.0938H12.4688C12.6262 10.0938 12.7772 10.1563 12.8886 10.2677C12.9999 10.379 13.0625 10.53 13.0625 10.6875C13.0625 10.845 12.9999 10.996 12.8886 11.1073C12.7772 11.2187 12.6262 11.2812 12.4688 11.2812ZM13.0625 3.5625H5.9375V2.96875C5.9375 2.81128 6.00006 2.66026 6.11141 2.54891C6.22275 2.43756 6.37378 2.375 6.53125 2.375H12.4688C12.6262 2.375 12.7772 2.43756 12.8886 2.54891C12.9999 2.66026 13.0625 2.81128 13.0625 2.96875V3.5625Z" fill="#6B7280"/>
</svg>
