<svg width="18" height="18" viewBox="0 0 18 18" fill="none" xmlns="http://www.w3.org/2000/svg">
<path d="M8.1002 2.70001H4.1002C3.72889 2.70001 3.3728 2.84751 3.11025 3.11006C2.84769 3.37261 2.7002 3.72871 2.7002 4.10001V13.9C2.7002 14.2713 2.84769 14.6274 3.11025 14.89C3.3728 15.1525 3.72889 15.3 4.1002 15.3H13.9002C14.2715 15.3 14.6276 15.1525 14.8901 14.89C15.1527 14.6274 15.3002 14.2713 15.3002 13.9V9.90001" stroke="#111827" stroke-linecap="round" stroke-linejoin="round"/>
<path d="M12.9918 3.096C13.2454 2.84245 13.5892 2.70001 13.9478 2.70001C14.3064 2.70001 14.6503 2.84245 14.9038 3.096C15.1574 3.34955 15.2998 3.69343 15.2998 4.052C15.2998 4.41057 15.1574 4.75446 14.9038 5.008L8.84914 11.0627L6.2998 11.7L6.93714 9.15068L12.9918 3.096Z" stroke="#111827" stroke-linecap="round" stroke-linejoin="round"/>
</svg>
