<svg width="25" height="20" viewBox="0 0 25 20" fill="none" xmlns="http://www.w3.org/2000/svg">
<path fill-rule="evenodd" clip-rule="evenodd" d="M4.29227 7.14963L4.29227 7.14963L4.23172 7.13403C4.14475 7.1107 4.05353 7.16373 4.0302 7.25071L3.82867 8.00802C3.8117 8.07378 3.75867 8.12045 3.69079 8.12893C3.62291 8.13742 3.56139 8.10772 3.52745 8.04832L2.02131 5.44546C1.97676 5.36697 2.00434 5.26515 2.08283 5.2206L4.68569 3.71871C4.74508 3.68476 4.81509 3.68901 4.86812 3.72931C4.92327 3.77174 4.94449 3.8375 4.92752 3.90326L4.72387 4.66694C4.70054 4.75391 4.75145 4.84088 4.8363 4.86634C6.26819 5.30333 7.54311 5.93549 8.27284 7.01948C7.93131 7.45011 7.6025 7.89983 7.29279 8.36864C6.46728 7.7099 5.43691 7.44448 4.29227 7.14963ZM22.9184 5.21848L20.3156 3.71658C20.2562 3.68264 20.1862 3.68689 20.1331 3.72719C20.078 3.76962 20.0568 3.83538 20.0737 3.90114L20.2774 4.66482C20.3007 4.75179 20.2498 4.83876 20.165 4.86422C18.7331 5.30121 17.4582 5.93336 16.7284 7.01736C17.0657 7.44799 17.3966 7.89771 17.7064 8.36652C18.5319 7.70778 19.5622 7.44236 20.7069 7.14751L20.7674 7.13191C20.8565 7.10858 20.9456 7.16161 20.9689 7.24858L21.1705 8.0059C21.1874 8.07166 21.2405 8.11833 21.3084 8.12681C21.3762 8.1353 21.4378 8.1056 21.4717 8.0462L22.9757 5.44334C23.0245 5.36697 22.9969 5.26515 22.9184 5.21848ZM9.50533 3.97326C9.67291 3.91387 9.85323 3.88205 10.042 3.88205H14.9614C15.148 3.88205 15.3305 3.91387 15.4981 3.97326L16.2151 2.86169C16.3339 2.67502 16.336 2.44803 16.2172 2.26136C16.0984 2.07468 15.8947 1.9771 15.6763 2.00468L12.5749 2.40137C12.5261 2.40773 12.4837 2.40773 12.4349 2.40137L9.3335 2.00468C9.11288 1.9771 8.90924 2.07256 8.79044 2.26136C8.67165 2.44803 8.67377 2.67502 8.79256 2.86169L9.50533 3.97326ZM15.7802 6.9219C20.0228 11.9982 20.9371 17.5752 12.5006 17.5052C4.06414 17.5752 4.97631 11.9982 9.22107 6.9219C9.46078 7.06191 9.74292 7.14464 10.0399 7.14464H14.9592C15.2584 7.14464 15.5384 7.06403 15.7802 6.9219ZM10.042 4.56087C9.51806 4.56087 9.08955 4.98938 9.08955 5.51334C9.08955 6.03731 9.51806 6.46582 10.042 6.46582H14.9614C15.4853 6.46582 15.9138 6.03731 15.9138 5.51334C15.9138 4.98938 15.4853 4.56087 14.9614 4.56087H10.042ZM14.0337 11.7869L14.1976 11.2277H13.5139C13.4848 11.0696 13.4331 10.9226 13.3587 10.7865C13.326 10.7255 13.2885 10.668 13.2461 10.614L14.0337 10.6202L14.1976 10.061H11.8353H11.7388H11.0735L10.9096 10.6009H11.5749L11.9505 10.6039C12.2592 10.6201 12.4923 10.7035 12.65 10.854C12.7571 10.9553 12.8318 11.0798 12.874 11.2277H11.0735L10.9096 11.7869H12.891C12.87 11.8829 12.8355 11.9681 12.7874 12.0425C12.7023 12.1726 12.5793 12.2707 12.4186 12.3366C12.2579 12.4008 12.0635 12.433 11.8353 12.433H10.9578L10.9674 12.838L12.732 14.9979H13.4841V14.9593L11.8545 12.9633H11.869C12.2708 12.9633 12.5938 12.8982 12.8381 12.7681C13.0839 12.6379 13.2623 12.4659 13.3732 12.2522C13.4494 12.1063 13.4998 11.9512 13.5244 11.7869H14.0337Z" fill="#6B7280"/>
</svg>
