<svg width="128" height="130" viewBox="0 0 128 130" fill="none" xmlns="http://www.w3.org/2000/svg">
<g opacity="0.04">
<path d="M107.99 63.1589L64.8611 64.2447L107.99 71.4836L104.99 94.1347L121.112 66.7783L102.454 37.3096L107.99 63.1589Z" fill="#96B42E"/>
<path d="M21.0741 61.2933L64.2869 64.9359L21.0741 69.6713L24.1128 93.5605L8.03577 64.9359L24.1128 36.7354L21.0741 61.2933Z" fill="#96B42E"/>
<path d="M59.3748 20.9481L64.8158 66.009L67.7176 20.9481L88.9686 23.3105L63.0021 7.46191L36.7354 23.3105L59.3748 20.9481Z" fill="#96B42E"/>
<path d="M61.4598 109.397L65.0871 64.8613L69.8026 109.397L90.6908 107.103L65.0871 122.834L38.4576 107.103L61.4598 109.397Z" fill="#96B42E"/>
<path d="M97.4307 26.1945L64.8611 65.4345L104.076 32.7666L118.816 56.927L110.718 18.6692L72.7534 8.60938L97.4307 26.1945Z" fill="#29A7E1"/>
<path d="M26.2822 100.873L64.8609 64.8613L33.4862 108.041L54.6007 119.964L18.1439 115.315L10.9058 77.7113L26.2822 100.873Z" fill="#29A7E1"/>
<path d="M24.7164 29.5781L64.8609 64.8605L31.8028 22.4572L54.5772 8.60938L16.3149 15.056L8.60974 56.3848L24.7164 29.5781Z" fill="#29A7E1"/>
<path d="M99.046 105.016L65.4351 65.4355L106.16 97.9519L120.538 78.468L113.667 113.279L74.3863 119.965L99.046 105.016Z" fill="#29A7E1"/>
<path d="M110.493 26.9773C115.407 26.9773 119.39 22.9941 119.39 18.0805C119.39 13.1669 115.407 9.18359 110.493 9.18359C105.58 9.18359 101.596 13.1669 101.596 18.0805C101.596 22.9941 105.58 26.9773 110.493 26.9773Z" fill="#96B42E"/>
<path fill-rule="evenodd" clip-rule="evenodd" d="M110.78 10.4164C106.389 10.4164 102.829 13.9761 102.829 18.3672C102.829 22.7584 106.389 26.3181 110.78 26.3181C115.171 26.3181 118.731 22.7584 118.731 18.3672C118.731 13.9761 115.171 10.4164 110.78 10.4164ZM101.022 18.3672C101.022 12.9781 105.391 8.60938 110.78 8.60938C116.169 8.60938 120.538 12.9781 120.538 18.3672C120.538 23.7563 116.169 28.1251 110.78 28.1251C105.391 28.1251 101.022 23.7563 101.022 18.3672Z" fill="white"/>
<path d="M110.493 123.407C115.407 123.407 119.39 119.424 119.39 114.51C119.39 109.597 115.407 105.613 110.493 105.613C105.58 105.613 101.596 109.597 101.596 114.51C101.596 119.424 105.58 123.407 110.493 123.407Z" fill="#96B42E"/>
<path fill-rule="evenodd" clip-rule="evenodd" d="M110.78 106.848C106.389 106.848 102.829 110.408 102.829 114.799C102.829 119.19 106.389 122.75 110.78 122.75C115.171 122.75 118.731 119.19 118.731 114.799C118.731 110.408 115.171 106.848 110.78 106.848ZM101.022 114.799C101.022 109.41 105.391 105.041 110.78 105.041C116.169 105.041 120.538 109.41 120.538 114.799C120.538 120.188 116.169 124.557 110.78 124.557C105.391 124.557 101.022 120.188 101.022 114.799Z" fill="white"/>
<path d="M120.825 71.1754C124.471 71.1754 127.426 68.2201 127.426 64.5745C127.426 60.929 124.471 57.9736 120.825 57.9736C117.18 57.9736 114.224 60.929 114.224 64.5745C114.224 68.2201 117.18 71.1754 120.825 71.1754Z" fill="#29A7E1"/>
<path fill-rule="evenodd" clip-rule="evenodd" d="M120.825 58.8344C117.655 58.8344 115.085 61.4042 115.085 64.5743C115.085 67.7444 117.655 70.3142 120.825 70.3142C123.995 70.3142 126.565 67.7444 126.565 64.5743C126.565 61.4042 123.995 58.8344 120.825 58.8344ZM113.65 64.5743C113.65 60.6117 116.863 57.3994 120.825 57.3994C124.788 57.3994 128 60.6117 128 64.5743C128 68.5369 124.788 71.7492 120.825 71.7492C116.863 71.7492 113.65 68.5369 113.65 64.5743Z" fill="white"/>
<path d="M16.9328 26.9773C12.0192 26.9773 8.03598 22.9941 8.03598 18.0805C8.03598 13.1669 12.0192 9.18359 16.9328 9.18359C21.8464 9.18359 25.8297 13.1669 25.8297 18.0805C25.8297 22.9941 21.8464 26.9773 16.9328 26.9773Z" fill="#96B42E"/>
<path fill-rule="evenodd" clip-rule="evenodd" d="M17.2199 10.4164C21.6111 10.4164 25.1708 13.9761 25.1708 18.3672C25.1708 22.7584 21.6111 26.3181 17.2199 26.3181C12.8288 26.3181 9.26909 22.7584 9.26909 18.3672C9.26909 13.9761 12.8288 10.4164 17.2199 10.4164ZM26.9778 18.3672C26.9778 12.9781 22.609 8.60938 17.2199 8.60938C11.8308 8.60938 7.46208 12.9781 7.46208 18.3672C7.46208 23.7563 11.8308 28.1251 17.2199 28.1251C22.609 28.1251 26.9778 23.7563 26.9778 18.3672Z" fill="white"/>
<path d="M16.9328 123.407C12.0192 123.407 8.03598 119.424 8.03598 114.51C8.03598 109.597 12.0192 105.613 16.9328 105.613C21.8464 105.613 25.8297 109.597 25.8297 114.51C25.8297 119.424 21.8464 123.407 16.9328 123.407Z" fill="#96B42E"/>
<path fill-rule="evenodd" clip-rule="evenodd" d="M17.2199 106.848C21.6111 106.848 25.1708 110.408 25.1708 114.799C25.1708 119.19 21.6111 122.75 17.2199 122.75C12.8288 122.75 9.26909 119.19 9.26909 114.799C9.26909 110.408 12.8288 106.848 17.2199 106.848ZM26.9778 114.799C26.9778 109.41 22.609 105.041 17.2199 105.041C11.8308 105.041 7.46208 109.41 7.46208 114.799C7.46208 120.188 11.8308 124.557 17.2199 124.557C22.609 124.557 26.9778 120.188 26.9778 114.799Z" fill="white"/>
<path d="M7.17486 71.1754C3.52928 71.1754 0.573956 68.2201 0.573956 64.5745C0.573956 60.929 3.52928 57.9736 7.17486 57.9736C10.8204 57.9736 13.7758 60.929 13.7758 64.5745C13.7758 68.2201 10.8204 71.1754 7.17486 71.1754Z" fill="#29A7E1"/>
<path fill-rule="evenodd" clip-rule="evenodd" d="M7.17496 58.8344C10.345 58.8344 12.9149 61.4042 12.9149 64.5743C12.9149 67.7444 10.345 70.3142 7.17496 70.3142C4.0049 70.3142 1.43505 67.7444 1.43505 64.5743C1.43505 61.4042 4.0049 58.8344 7.17496 58.8344ZM14.3499 64.5743C14.3499 60.6117 11.1375 57.3994 7.17496 57.3994C3.21238 57.3994 7.05719e-05 60.6117 7.05719e-05 64.5743C7.05719e-05 68.5369 3.21238 71.7492 7.17496 71.7492C11.1375 71.7492 14.3499 68.5369 14.3499 64.5743Z" fill="white"/>
<path d="M64.2872 13.7762C60.8001 13.7762 57.9733 10.9494 57.9733 7.46234C57.9733 3.97527 60.8001 1.14844 64.2872 1.14844C67.7742 1.14844 70.6011 3.97527 70.6011 7.46234C70.6011 10.9494 67.7742 13.7762 64.2872 13.7762Z" fill="#29A7E1"/>
<path fill-rule="evenodd" clip-rule="evenodd" d="M64.287 1.49238C67.5839 1.49238 70.2565 4.16502 70.2565 7.46189C70.2565 10.7588 67.5839 13.4314 64.287 13.4314C60.9901 13.4314 58.3175 10.7588 58.3175 7.46189C58.3175 4.16502 60.9901 1.49238 64.287 1.49238ZM71.7489 7.46189C71.7489 3.3408 68.4081 0 64.287 0C60.1659 0 56.8251 3.3408 56.8251 7.46189C56.8251 11.583 60.1659 14.9238 64.287 14.9238C68.4081 14.9238 71.7489 11.583 71.7489 7.46189Z" fill="white"/>
<path d="M65.148 129.147C61.5024 129.147 58.5471 126.192 58.5471 122.546C58.5471 118.901 61.5024 115.945 65.148 115.945C68.7936 115.945 71.7489 118.901 71.7489 122.546C71.7489 126.192 68.7936 129.147 65.148 129.147Z" fill="#29A7E1"/>
<path fill-rule="evenodd" clip-rule="evenodd" d="M65.1481 116.808C68.3182 116.808 70.888 119.378 70.888 122.548C70.888 125.718 68.3182 128.288 65.1481 128.288C61.978 128.288 59.4082 125.718 59.4082 122.548C59.4082 119.378 61.978 116.808 65.1481 116.808ZM72.323 122.548C72.323 118.585 69.1107 115.373 65.1481 115.373C61.1855 115.373 57.9732 118.585 57.9732 122.548C57.9732 126.511 61.1855 129.723 65.1481 129.723C69.1107 129.723 72.323 126.511 72.323 122.548Z" fill="white"/>
</g>
</svg>
