<svg width="20" height="20" viewBox="0 0 20 20" fill="none" xmlns="http://www.w3.org/2000/svg">
<path d="M7.9 2.89052C6.48867 2.2167 4.51602 1.88662 1.875 1.8749C1.62593 1.87151 1.38174 1.94414 1.175 2.0831C1.00531 2.1978 0.866403 2.35244 0.770498 2.53342C0.674593 2.7144 0.62463 2.91617 0.625002 3.12099V14.2968C0.625002 15.0522 1.1625 15.6222 1.875 15.6222C4.65117 15.6222 7.43594 15.8815 9.10391 17.4581C9.12673 17.4798 9.15541 17.4943 9.18639 17.4998C9.21737 17.5053 9.24928 17.5015 9.27816 17.489C9.30704 17.4766 9.33162 17.4559 9.34883 17.4295C9.36605 17.4032 9.37515 17.3724 9.375 17.3409V4.17255C9.37507 4.08371 9.35606 3.99588 9.31927 3.91502C9.28247 3.83415 9.22875 3.76212 9.16172 3.7038C8.77965 3.37718 8.35525 3.10361 7.9 2.89052ZM18.825 2.08193C18.6182 1.94332 18.374 1.87109 18.125 1.8749C15.484 1.88662 13.5113 2.21513 12.1 2.89052C11.6448 3.10323 11.2203 3.37625 10.8379 3.70224C10.771 3.76066 10.7174 3.83272 10.6807 3.91357C10.644 3.99442 10.625 4.08219 10.625 4.17099V17.3401C10.625 17.3704 10.6339 17.3999 10.6506 17.4251C10.6673 17.4503 10.6911 17.47 10.719 17.4817C10.7469 17.4935 10.7776 17.4967 10.8073 17.491C10.837 17.4854 10.8643 17.4711 10.8859 17.4499C11.8887 16.4538 13.6484 15.621 18.1266 15.6214C18.4581 15.6214 18.776 15.4897 19.0104 15.2553C19.2449 15.0208 19.3766 14.7029 19.3766 14.3714V3.12138C19.377 2.91616 19.3269 2.71398 19.2307 2.53269C19.1346 2.35141 18.9952 2.1966 18.825 2.08193Z" fill="#597F59"/>
</svg>
