<svg width="12" height="22" viewBox="0 0 12 22" fill="none" xmlns="http://www.w3.org/2000/svg">
<path d="M2.79164 2.29167C2.79164 1.02575 3.81739 0 5.0833 0C6.34922 0 7.37497 1.02575 7.37497 2.29167C7.37497 3.55758 6.34922 4.58333 5.0833 4.58333C3.81739 4.58333 2.79164 3.55758 2.79164 2.29167ZM8.58314 8.69733C8.3558 6.87408 6.79839 5.5 4.96139 5.5C3.12439 5.5 1.56697 6.875 1.33964 8.69733L1.2773 9.19417L4.67447 11.4354C5.09614 11.7159 5.2098 12.2852 4.92839 12.7068C4.75239 12.9718 4.46089 13.1148 4.1648 13.1148C3.99064 13.1148 3.81372 13.0653 3.65697 12.9608L1.02247 11.2282L0.521053 15.2423C0.423887 16.0252 0.665887 16.8117 1.18839 17.4029C1.50005 17.7558 1.8988 18.0061 2.3333 18.1601V21.0824C2.3333 21.5884 2.74305 21.9991 3.24997 21.9991C3.75689 21.9991 4.16664 21.5884 4.16664 21.0824V18.3324H5.99997V21.0824C5.99997 21.5884 6.40972 21.9991 6.91664 21.9991C7.42355 21.9991 7.8333 21.5884 7.8333 21.0824V18.3324H9.66664C10.0581 18.3324 10.4064 18.084 10.5329 17.7146C10.6319 17.4277 11.5 14.8619 11.5 13.2907C11.5 11.3236 10.3468 9.51867 8.58314 8.69733Z" fill="#597F59"/>
</svg>
