<svg width="20" height="21" viewBox="0 0 20 21" fill="none" xmlns="http://www.w3.org/2000/svg">
<g clip-path="url(#clip0_283_470)">
<rect x="10" width="0.5" height="5" rx="0.25" fill="#597F59"/>
<path d="M20 22.1663C20 22.6263 19.6267 22.9996 19.1667 22.9996H0.833333C0.373333 22.9996 0 22.6263 0 22.1663C0 21.7063 0.373333 21.3329 0.833333 21.3329H19.1667C19.6267 21.3329 20 21.7063 20 22.1663ZM14.4817 7.16625C14.33 6.33625 13.94 5.55958 13.3417 4.96125L12.3558 3.97625C11.0967 2.71625 8.90083 2.71625 7.6425 3.97625L6.65667 4.96125C6.05833 5.55958 5.66833 6.33625 5.51667 7.16625H14.4817ZM17.5 17.9996H15.7792L14.7008 8.83292H10.8342V17.1663C10.8342 17.6263 10.4608 17.9996 10.0008 17.9996C9.54083 17.9996 9.1675 17.6263 9.1675 17.1663V8.83292H5.3L4.22167 17.9996H2.5C2.04 17.9996 1.66667 18.3729 1.66667 18.8329C1.66667 19.2929 2.04 19.6663 2.5 19.6663H17.5C17.96 19.6663 18.3333 19.2929 18.3333 18.8329C18.3333 18.3729 17.96 17.9996 17.5 17.9996Z" fill="#597F59"/>
<path d="M12 0.375C11.2 0.775 11 0.5 10.5 0.375H10V1.875C10.3333 2.04167 11.2 2.175 12 1.375C12.8 0.575 13.6667 0.375 14 0.375C13.5 -0.125 13 -0.125 12 0.375Z" fill="#597F59"/>
</g>
<defs>
<clipPath id="clip0_283_470">
<rect width="20" height="21" fill="white"/>
</clipPath>
</defs>
</svg>
