<svg width="18" height="18" viewBox="0 0 18 18" fill="none" xmlns="http://www.w3.org/2000/svg">
<g clip-path="url(#clip0_532_775)">
<path d="M0 7.33008L7.40918 4.75928L15.6885 7.33008V12.0498L2.05664 11.7729L1.66113 11.2324L1.29199 10.6655L0.962402 10.0854L0.69873 9.57129L0.290039 8.46387L0 7.33008Z" fill="#17CF9D"/>
<path d="M4.60548 0.938721C3.84259 1.01958 2.95665 1.36763 2.27462 1.85278C1.89845 2.12349 1.33595 2.68599 1.06525 3.06919C0.506263 3.86372 0.144153 4.84107 0.0316533 5.87817C-0.0421748 6.54614 0.0457158 7.56919 0.23556 8.26177L0.298841 8.49028L1.65939 8.50083L3.02345 8.50786L3.55783 7.44614C4.14845 6.27544 4.17306 6.24732 4.48243 6.24732C4.80939 6.24732 4.77423 6.19458 5.80431 8.24419L6.74298 10.1075L7.6465 8.29692C8.1422 7.302 8.5922 6.44419 8.64142 6.38794C8.82423 6.19458 9.17228 6.19106 9.35509 6.38442C9.40079 6.43364 9.66798 6.92583 9.94923 7.4813L10.459 8.49028L12.3996 8.50786C14.2805 8.52544 14.3402 8.52895 14.4352 8.59575C14.5863 8.70825 14.6672 8.88755 14.6496 9.06685C14.6285 9.2602 14.5371 9.38325 14.3438 9.48169L14.1891 9.56255H12.1465C10.9195 9.56255 10.0582 9.54849 9.9879 9.52739C9.92111 9.50981 9.82619 9.45356 9.77697 9.40786C9.72775 9.35864 9.53439 9.01763 9.35158 8.64849C9.16876 8.28286 9.01056 7.98052 9.00001 7.98052C8.98947 7.98052 8.57814 8.78911 8.08595 9.777C7.14025 11.6684 7.09103 11.7493 6.84142 11.795C6.70431 11.8231 6.51447 11.7704 6.39142 11.6719C6.34572 11.6368 5.92384 10.8352 5.3965 9.777L4.48243 7.94536L4.12384 8.66255C3.81095 9.28481 3.74415 9.3938 3.62814 9.46411C3.49806 9.54497 3.49454 9.54497 2.09884 9.55552L0.699622 9.56606L0.938685 10.0301C2.20431 12.4911 4.80939 14.8747 8.45861 16.9032C8.9754 17.1915 9.02462 17.1915 9.54142 16.9032C12.7266 15.1348 15.0996 13.1098 16.5235 10.9477C18.1442 8.48677 18.4395 5.89927 17.3426 3.75474C17.0789 3.23442 16.7801 2.82661 16.3652 2.40825C15.4406 1.49067 14.3262 0.980909 13.0957 0.92466C11.6719 0.857862 10.3324 1.4731 9.24611 2.69653L8.99298 2.9813L8.82423 2.78442C8.37072 2.23599 7.68517 1.68403 7.10509 1.38872C6.38439 1.02661 5.41407 0.85083 4.60548 0.938721Z" fill="#207DFF"/>
</g>
<defs>
<clipPath id="clip0_532_775">
<rect width="18" height="18" fill="white"/>
</clipPath>
</defs>
</svg>
