<svg width="20" height="20" viewBox="0 0 20 20" fill="none" xmlns="http://www.w3.org/2000/svg">
<path d="M16.875 3.75H15V3.125C14.9995 2.62788 14.8018 2.15126 14.4503 1.79975C14.0987 1.44823 13.6221 1.25052 13.125 1.25H6.875C6.37788 1.25052 5.90126 1.44823 5.54975 1.79975C5.19823 2.15126 5.00052 2.62788 5 3.125V3.75H3.125C2.46218 3.75072 1.82672 4.01435 1.35803 4.48303C0.889348 4.95172 0.625724 5.58718 0.625 6.25V16.25C0.625 16.913 0.888392 17.5489 1.35723 18.0178C1.82607 18.4866 2.46196 18.75 3.125 18.75H16.875C17.538 18.75 18.1739 18.4866 18.6428 18.0178C19.1116 17.5489 19.375 16.913 19.375 16.25V6.25C19.3743 5.58718 19.1107 4.95172 18.642 4.48303C18.1733 4.01435 17.5378 3.75072 16.875 3.75ZM13.125 11.875H10.625V14.375C10.625 14.5408 10.5592 14.6997 10.4419 14.8169C10.3247 14.9342 10.1658 15 10 15C9.83424 15 9.67527 14.9342 9.55806 14.8169C9.44085 14.6997 9.375 14.5408 9.375 14.375V11.875H6.875C6.70924 11.875 6.55027 11.8092 6.43306 11.6919C6.31585 11.5747 6.25 11.4158 6.25 11.25C6.25 11.0842 6.31585 10.9253 6.43306 10.8081C6.55027 10.6908 6.70924 10.625 6.875 10.625H9.375V8.125C9.375 7.95924 9.44085 7.80027 9.55806 7.68306C9.67527 7.56585 9.83424 7.5 10 7.5C10.1658 7.5 10.3247 7.56585 10.4419 7.68306C10.5592 7.80027 10.625 7.95924 10.625 8.125V10.625H13.125C13.2908 10.625 13.4497 10.6908 13.5669 10.8081C13.6842 10.9253 13.75 11.0842 13.75 11.25C13.75 11.4158 13.6842 11.5747 13.5669 11.6919C13.4497 11.8092 13.2908 11.875 13.125 11.875ZM13.75 3.75H6.25V3.125C6.25 2.95924 6.31585 2.80027 6.43306 2.68306C6.55027 2.56585 6.70924 2.5 6.875 2.5H13.125C13.2908 2.5 13.4497 2.56585 13.5669 2.68306C13.6842 2.80027 13.75 2.95924 13.75 3.125V3.75Z" fill="#597F59"/>
</svg>
