<svg width="20" height="20" viewBox="0 0 20 20" fill="none" xmlns="http://www.w3.org/2000/svg">
<path d="M7.9 2.89063C6.48867 2.2168 4.51602 1.88672 1.875 1.87501C1.62593 1.87162 1.38174 1.94425 1.175 2.08321C1.00531 2.19791 0.866403 2.35255 0.770498 2.53353C0.674593 2.71451 0.62463 2.91628 0.625002 3.1211V14.2969C0.625002 15.0523 1.1625 15.6223 1.875 15.6223C4.65117 15.6223 7.43594 15.8816 9.10391 17.4582C9.12673 17.4799 9.15541 17.4944 9.18639 17.4999C9.21737 17.5054 9.24928 17.5016 9.27816 17.4892C9.30704 17.4767 9.33162 17.456 9.34883 17.4296C9.36605 17.4033 9.37515 17.3725 9.375 17.341V4.17266C9.37507 4.08382 9.35606 3.99599 9.31927 3.91512C9.28247 3.83426 9.22875 3.76223 9.16172 3.70391C8.77965 3.37728 8.35525 3.10372 7.9 2.89063ZM18.825 2.08204C18.6182 1.94343 18.374 1.8712 18.125 1.87501C15.484 1.88672 13.5113 2.21524 12.1 2.89063C11.6448 3.10334 11.2203 3.37636 10.8379 3.70235C10.771 3.76077 10.7174 3.83282 10.6807 3.91368C10.644 3.99453 10.625 4.0823 10.625 4.1711V17.3402C10.625 17.3705 10.6339 17.4 10.6506 17.4252C10.6673 17.4504 10.6911 17.4701 10.719 17.4818C10.7469 17.4936 10.7776 17.4968 10.8073 17.4911C10.837 17.4855 10.8643 17.4712 10.8859 17.45C11.8887 16.4539 13.6484 15.6211 18.1266 15.6215C18.4581 15.6215 18.776 15.4898 19.0104 15.2554C19.2449 15.021 19.3766 14.703 19.3766 14.3715V3.12149C19.377 2.91627 19.3269 2.71409 19.2307 2.5328C19.1346 2.35152 18.9952 2.19671 18.825 2.08204Z" fill="#597F59"/>
</svg>
