<svg width="20" height="20" viewBox="0 0 20 20" fill="none" xmlns="http://www.w3.org/2000/svg">
<path fill-rule="evenodd" clip-rule="evenodd" d="M10.4453 0C6.7002 0 3.35227 2.18328 1.79649 5.48015L1.43756 4.30286C1.40994 4.21007 1.36426 4.12365 1.30315 4.04856C1.24204 3.97347 1.1667 3.91119 1.08146 3.8653C0.996213 3.81941 0.902742 3.79081 0.806412 3.78114C0.710083 3.77147 0.612793 3.78093 0.520129 3.80897C0.333778 3.86595 0.177679 3.9946 0.0861442 4.16663C-0.0053908 4.33867 -0.0248712 4.54001 0.0319848 4.7264L0.932183 7.68829C0.988146 7.87083 1.11293 8.02444 1.28013 8.11662C1.44734 8.2088 1.64384 8.23231 1.82807 8.18218L4.7311 7.38966C4.82457 7.36425 4.91209 7.32061 4.98863 7.26126C5.06518 7.20191 5.12924 7.12802 5.17714 7.04383C5.22504 6.95965 5.25582 6.86682 5.26773 6.7707C5.27964 6.67458 5.27243 6.57705 5.24653 6.48372C5.19514 6.29591 5.07135 6.13616 4.90231 6.03953C4.73327 5.9429 4.5328 5.91728 4.3449 5.96829L3.0269 6.3301C4.29403 3.41187 7.18526 1.47018 10.4453 1.47018C14.9215 1.47018 18.5298 5.08028 18.5298 9.55473C18.5298 14.0292 14.9215 17.6407 10.4453 17.6407C6.77431 17.6407 3.56763 15.1801 2.6249 11.6337C2.60006 11.5403 2.55706 11.4527 2.49837 11.376C2.43967 11.2993 2.36643 11.2349 2.28282 11.1865C2.19922 11.1381 2.10689 11.1066 2.01112 11.0939C1.91536 11.0812 1.81803 11.0875 1.7247 11.1125C1.53711 11.1627 1.377 11.2851 1.27936 11.453C1.18171 11.6208 1.15445 11.8205 1.20353 12.0084C2.31571 16.1922 6.11515 19.1109 10.4453 19.1109C15.7158 19.1109 20 14.824 20 9.55473C20 4.28549 15.7158 2.77829e-06 10.4453 0ZM9.96143 4.61154C9.76747 4.6123 9.58167 4.68968 9.44452 4.82684C9.30736 4.96399 9.22998 5.14979 9.22922 5.34375V10.7593C9.22871 10.8891 9.26259 11.0167 9.3274 11.1292C9.39221 11.2417 9.48564 11.335 9.5982 11.3996L13.0439 13.3594C13.128 13.4072 13.2207 13.438 13.3166 13.45C13.4126 13.462 13.51 13.4549 13.6032 13.4291C13.6965 13.4034 13.7837 13.3595 13.8599 13.3C13.9362 13.2405 13.9999 13.1665 14.0475 13.0823C14.0953 12.9982 14.1261 12.9056 14.1381 12.8096C14.1501 12.7136 14.143 12.6162 14.1172 12.523C14.0915 12.4298 14.0476 12.3425 13.9881 12.2663C13.9286 12.1901 13.8546 12.1263 13.7704 12.0787L10.6994 10.3315V5.34375C10.699 5.24722 10.6796 5.15171 10.6423 5.06267C10.6051 4.97362 10.5506 4.8928 10.4821 4.82481C10.4135 4.75682 10.3323 4.70299 10.243 4.66639C10.1536 4.6298 10.058 4.61116 9.96143 4.61154Z" fill="black"/>
</svg>
