<svg width="18" height="19" viewBox="0 0 18 19" fill="none" xmlns="http://www.w3.org/2000/svg">
<path d="M9 1.73242C6.20508 1.73242 3.9375 3.89066 3.9375 6.54883C3.9375 9.60742 7.3125 14.4544 8.55176 16.1286C8.6032 16.1992 8.67062 16.2567 8.74852 16.2964C8.82642 16.336 8.91259 16.3567 9 16.3567C9.08741 16.3567 9.17358 16.336 9.25148 16.2964C9.32938 16.2567 9.3968 16.1992 9.44824 16.1286C10.6875 14.4551 14.0625 9.60988 14.0625 6.54883C14.0625 3.89066 11.7949 1.73242 9 1.73242Z" stroke="#6B7280" stroke-width="1.1" stroke-linecap="round" stroke-linejoin="round"/>
<path d="M9 8.48242C9.93198 8.48242 10.6875 7.7269 10.6875 6.79492C10.6875 5.86294 9.93198 5.10742 9 5.10742C8.06802 5.10742 7.3125 5.86294 7.3125 6.79492C7.3125 7.7269 8.06802 8.48242 9 8.48242Z" stroke="#6B7280" stroke-width="1.1" stroke-linecap="round" stroke-linejoin="round"/>
</svg>
