<svg width="20" height="18" viewBox="0 0 20 18" fill="none" xmlns="http://www.w3.org/2000/svg">
<g clip-path="url(#clip0_1_2365)">
<path d="M1.98475 14.159V16.5211C1.98475 16.847 2.24586 17.1111 2.56808 17.1111H7.04475V14.1579H1.98475V14.159ZM12.8792 14.159V17.1111H17.3536C17.6759 17.1111 17.9381 16.847 17.9381 16.5211V14.1579H12.8781L12.8792 14.159ZM14.2392 8.64255C13.0692 9.43029 11.5614 9.86968 9.96142 9.86968C8.36142 9.86968 6.85253 9.43142 5.68364 8.64255C4.58586 9.38422 3.27031 9.7618 1.98475 9.84945V12.9791H7.04475V11.4058C7.04475 11.0799 7.30586 10.8147 7.62808 10.8147H12.297C12.6192 10.8147 12.8803 11.0788 12.8803 11.4047V12.9791H17.9392V9.84945C16.6536 9.7618 15.3381 9.38422 14.2403 8.64255H14.2392ZM4.12475 0.111084C3.90253 0.111084 3.69808 0.240315 3.60031 0.442588L0.059196 7.79187C0.0187493 7.87653 -0.00114799 7.96972 0.00115614 8.0637C0.00346027 8.15769 0.0278993 8.24977 0.0724443 8.33229C0.116989 8.41481 0.180355 8.4854 0.257281 8.53818C0.334206 8.59097 0.422473 8.62444 0.514752 8.63581C1.83031 8.79313 3.2592 8.60209 4.45253 7.99977L7.20031 0.111084H4.12475Z" fill="#6B7280"/>
<path d="M11.4848 0.111084H8.4381L5.91699 7.34912C6.92699 8.19979 8.36921 8.68862 9.96144 8.68862C11.5525 8.68862 12.9959 8.19979 14.0059 7.34912L11.4837 0.111084H11.4848ZM19.8625 7.79075L16.3225 0.442588C16.2746 0.343171 16.2001 0.259375 16.1073 0.20076C16.0146 0.142144 15.9075 0.111071 15.7981 0.111084H12.7214L15.4692 7.99977C16.647 8.59535 18.0737 8.79538 19.407 8.63581C19.4994 8.6245 19.5878 8.59103 19.6649 8.53817C19.7419 8.48532 19.8054 8.41461 19.85 8.33194C19.8945 8.24927 19.9189 8.15702 19.9211 8.06289C19.9233 7.96875 19.9032 7.87545 19.8625 7.79075Z" fill="#6B7280"/>
<path d="M9.99967 3.6062V5.29182M9.99967 5.29182V6.97743M9.99967 5.29182H11.6663M9.99967 5.29182H8.33301" stroke="white" stroke-width="0.5" stroke-linecap="round" stroke-linejoin="round"/>
</g>
<defs>
<clipPath id="clip0_1_2365">
<rect width="20" height="17.7778" fill="white" transform="translate(0 0.111084)"/>
</clipPath>
</defs>
</svg>
