<svg width="23" height="23" viewBox="0 0 23 23" fill="none" xmlns="http://www.w3.org/2000/svg">
<path d="M19.0728 7.68999H15.31V3.92717C15.3094 3.41624 15.1062 2.9264 14.7449 2.56511C14.3836 2.20383 13.8938 2.00059 13.3828 2H9.61716C9.10623 2.00059 8.61639 2.20383 8.2551 2.56511C7.89382 2.9264 7.69058 3.41624 7.68999 3.92717V7.68999H3.92717C3.41624 7.69058 2.9264 7.89382 2.56511 8.2551C2.20383 8.61639 2.00059 9.10623 2 9.61716V13.3828C2.00059 13.8938 2.20383 14.3836 2.56511 14.7449C2.9264 15.1062 3.41624 15.3094 3.92717 15.31H7.68999V19.0728C7.69058 19.5838 7.89382 20.0736 8.2551 20.4349C8.61639 20.7962 9.10623 20.9994 9.61716 21H13.3828C13.8938 20.9994 14.3836 20.7962 14.7449 20.4349C15.1062 20.0736 15.3094 19.5838 15.31 19.0728V15.31H19.0728C19.5838 15.3094 20.0736 15.1062 20.4349 14.7449C20.7962 14.3836 20.9994 13.8938 21 13.3828V9.61716C20.9994 9.10623 20.7962 8.61639 20.4349 8.2551C20.0736 7.89382 19.5838 7.69058 19.0728 7.68999ZM19.0387 11.2001C18.9849 11.3536 18.8994 11.4942 18.7879 11.6127C18.6764 11.7313 18.5413 11.8251 18.3913 11.8882C18.1643 11.9806 17.9213 12.0272 17.6762 12.0251C17.5648 12.264 17.3724 12.4557 17.133 12.5662C16.8852 12.6754 16.6162 12.7279 16.3456 12.7199C16.1488 12.7182 15.9524 12.7009 15.7582 12.6682C15.5347 13.1013 15.0973 13.3189 14.4507 13.3189C13.9091 13.3001 13.3734 13.2005 12.8613 13.0235C12.8049 13.0057 12.758 12.9662 12.7307 12.9138C12.7035 12.8614 12.6982 12.8003 12.716 12.744C12.7338 12.6877 12.7732 12.6407 12.8257 12.6135C12.8781 12.5862 12.9392 12.5809 12.9955 12.5987C14.1929 12.9771 14.9617 12.9665 15.2879 12.5718C14.9404 12.484 14.5978 12.3773 14.2619 12.252C14.2345 12.242 14.2093 12.2266 14.1878 12.2068C14.1663 12.1871 14.1489 12.1632 14.1366 12.1367C14.1243 12.1102 14.1173 12.0815 14.1161 12.0523C14.1149 12.0231 14.1194 11.994 14.1295 11.9665C14.1395 11.9391 14.1549 11.9139 14.1746 11.8924C14.1944 11.8709 14.2183 11.8534 14.2448 11.8411C14.2713 11.8288 14.3 11.8219 14.3292 11.8207C14.3584 11.8194 14.3875 11.824 14.415 11.834C15.6224 12.2761 16.4725 12.3873 16.9418 12.1642C17.0293 12.1237 17.1074 12.0653 17.171 11.9928C16.4078 11.8655 15.6639 11.6422 14.9568 11.3282C14.9291 11.3175 14.9039 11.3013 14.8826 11.2807C14.8612 11.2601 14.8442 11.2354 14.8326 11.2082C14.8209 11.1809 14.8148 11.1516 14.8146 11.1219C14.8145 11.0923 14.8202 11.0629 14.8315 11.0355C14.8429 11.0081 14.8596 10.9832 14.8806 10.9623C14.9017 10.9415 14.9268 10.925 14.9543 10.914C14.9818 10.9029 15.0112 10.8974 15.0409 10.8979C15.0705 10.8984 15.0998 10.9048 15.127 10.9167C16.6184 11.5327 17.6564 11.7221 18.2133 11.479C18.2979 11.4432 18.3751 11.3921 18.4411 11.3284C17.2233 11.2148 16.2672 10.5482 15.414 9.95344C15.0195 9.65648 14.5974 9.39795 14.1537 9.18139C13.3845 8.8496 12.9401 9.19834 11.9664 9.96284C11.888 10.0245 11.8067 10.0882 11.7227 10.1539V12.4478C11.851 12.3746 11.9911 12.3023 12.1456 12.2316C12.24 12.1883 12.3646 12.144 12.5088 12.0927C12.9279 11.9663 13.3244 11.7747 13.6838 11.5249C13.8676 11.3766 14.0793 11.1586 14.036 10.9619C13.9951 10.778 13.7348 10.5911 13.3534 10.4638C13.3325 10.4791 13.3099 10.492 13.286 10.5022C13.1023 10.5369 12.9205 10.581 12.7413 10.6346C12.6846 10.6576 12.6229 10.6653 12.5623 10.6572C12.5017 10.649 12.4442 10.6252 12.3957 10.588C12.3207 10.5347 12.2845 10.4556 12.3493 10.3765C12.5015 10.1915 12.9849 9.81227 13.2382 9.87499C13.2806 9.8848 13.3206 9.90313 13.3557 9.92887C13.3909 9.95462 13.4204 9.98723 13.4425 10.0247C14.0203 10.2055 14.3917 10.5063 14.4709 10.8661C14.5453 11.2029 14.3743 11.5415 13.9628 11.872C13.5655 12.1545 13.1249 12.3707 12.6584 12.5121C12.524 12.5599 12.4079 12.6014 12.3315 12.6365C12.1773 12.7066 12.0268 12.7847 11.8808 12.8707C12.0735 13.02 12.2324 13.2084 12.3471 13.4236C12.4618 13.6387 12.5295 13.8757 12.546 14.1189C12.562 14.6225 12.319 15.1223 11.8459 15.5832C12.0486 15.7315 12.2616 15.8653 12.4833 15.9834C13.1152 16.3233 13.3499 16.897 13.2443 17.8435C13.2382 17.8979 13.2123 17.9482 13.1716 17.9847C13.1308 18.0212 13.078 18.0415 13.0233 18.0415C13.0149 18.0415 13.0066 18.0411 12.9983 18.0401C12.9398 18.0335 12.8863 18.004 12.8495 17.9581C12.8126 17.9121 12.7955 17.8535 12.8018 17.7949C12.9119 16.8079 12.5863 16.5452 12.2725 16.3763C12.0835 16.2752 11.9001 16.1641 11.7231 16.0435V17.1687C11.7231 17.2278 11.6996 17.2844 11.6579 17.3262C11.6161 17.368 11.5595 17.3914 11.5004 17.3914C11.4413 17.3914 11.3847 17.368 11.3429 17.3262C11.3012 17.2844 11.2777 17.2278 11.2777 17.1687V16.0426C11.1007 16.1633 10.9173 16.2744 10.7284 16.3754C10.4145 16.5444 10.0889 16.8071 10.199 17.7941C10.2053 17.8527 10.1882 17.9113 10.1514 17.9573C10.1145 18.0032 10.061 18.0327 10.0025 18.0393C9.9942 18.0402 9.98588 18.0407 9.97755 18.0407C9.92281 18.0406 9.87002 18.0204 9.82924 17.9839C9.78847 17.9474 9.76257 17.8971 9.75649 17.8427C9.65087 16.8962 9.88561 16.3225 10.5175 15.9826C10.7392 15.8645 10.9522 15.7307 11.1549 15.5823C10.6818 15.1214 10.4399 14.6221 10.4548 14.1181C10.4713 13.8749 10.5391 13.6379 10.6537 13.4227C10.7684 13.2076 10.9273 13.0192 11.12 12.8698C10.9739 12.784 10.8235 12.7057 10.6693 12.6355C10.5927 12.6006 10.4767 12.5591 10.3424 12.5113C9.87585 12.3699 9.43531 12.1537 9.03797 11.8712C8.62589 11.5409 8.45591 11.2029 8.52926 10.8667C8.60853 10.5069 8.97995 10.2062 9.55771 10.0254C9.57983 9.98785 9.60935 9.95523 9.64447 9.92949C9.67959 9.90374 9.71958 9.88541 9.76201 9.8756C10.0151 9.81227 10.4989 10.1925 10.6507 10.3763C10.7774 10.5306 10.5212 10.665 10.3837 10.6624C10.3406 10.6616 10.2981 10.6523 10.2587 10.6348C10.0795 10.5812 9.89773 10.5371 9.714 10.5024C9.69014 10.4922 9.66753 10.4793 9.64658 10.464C9.26515 10.5913 9.00467 10.7776 8.96401 10.9621C8.9207 11.1588 9.13174 11.3768 9.31623 11.5251C9.67567 11.7747 10.0722 11.9662 10.4912 12.0925C10.6354 12.1438 10.76 12.1881 10.8544 12.2314C11.0089 12.3021 11.149 12.3744 11.2773 12.4475V10.1539C11.1931 10.0883 11.1119 10.0247 11.0336 9.96304C10.0601 9.19834 9.61573 8.8496 8.84633 9.18139C8.4026 9.39791 7.98063 9.65644 7.5862 9.95344C6.73304 10.5482 5.77651 11.2148 4.55887 11.3284C4.62493 11.3921 4.70215 11.4432 4.78667 11.479C5.3438 11.7219 6.38226 11.5327 7.87304 10.9167C7.90019 10.9048 7.92945 10.8984 7.95911 10.8979C7.98876 10.8974 8.01821 10.9029 8.04573 10.914C8.07325 10.925 8.09828 10.9415 8.11935 10.9623C8.14043 10.9832 8.15712 11.0081 8.16846 11.0355C8.17979 11.0629 8.18554 11.0923 8.18536 11.1219C8.18518 11.1516 8.17908 11.1809 8.16741 11.2082C8.15575 11.2354 8.13875 11.2601 8.11743 11.2807C8.0961 11.3013 8.07088 11.3175 8.04323 11.3282C7.33622 11.6418 6.59238 11.8648 5.82942 11.9918C5.89302 12.0643 5.97111 12.1227 6.05864 12.1632C6.52854 12.3863 7.37802 12.2751 8.58544 11.833C8.61289 11.823 8.64204 11.8184 8.67125 11.8196C8.70045 11.8209 8.72912 11.8278 8.75564 11.8401C8.78215 11.8524 8.80598 11.8698 8.82576 11.8913C8.84555 11.9129 8.8609 11.9381 8.87095 11.9655C8.881 11.9929 8.88554 12.0221 8.88432 12.0513C8.8831 12.0805 8.87614 12.1092 8.86384 12.1357C8.85154 12.1622 8.83413 12.186 8.81262 12.2058C8.79111 12.2256 8.76591 12.241 8.73846 12.251C8.40256 12.3763 8.06005 12.483 7.71246 12.5707C8.03934 12.9663 8.80752 12.9761 10.0049 12.5977C10.0328 12.5889 10.0622 12.5857 10.0913 12.5882C10.1204 12.5907 10.1488 12.599 10.1748 12.6125C10.2007 12.6259 10.2237 12.6444 10.2426 12.6668C10.2614 12.6892 10.2756 12.7151 10.2844 12.743C10.2932 12.7709 10.2965 12.8002 10.2939 12.8293C10.2914 12.8585 10.2832 12.8868 10.2697 12.9128C10.2562 12.9387 10.2377 12.9618 10.2153 12.9806C10.1929 12.9994 10.167 13.0136 10.1392 13.0225C9.62698 13.1995 9.09126 13.299 8.54969 13.3179C7.90287 13.3179 7.46689 13.1003 7.24216 12.6672C7.04804 12.6999 6.85164 12.7172 6.6548 12.7189C6.38418 12.7269 6.11518 12.6744 5.86742 12.5652C5.62806 12.4547 5.43559 12.263 5.32418 12.024C5.07915 12.0261 4.83612 11.9797 4.60913 11.8874C4.45946 11.8241 4.32464 11.7304 4.21333 11.612C4.10202 11.4936 4.01666 11.3533 3.96272 11.2001C3.95015 11.1664 3.94592 11.1302 3.95039 11.0945C3.95486 11.0589 3.96791 11.0248 3.98841 10.9953C4.00891 10.9658 4.03626 10.9417 4.06811 10.9251C4.09996 10.9084 4.13537 10.8997 4.17131 10.8998H4.17274C5.43941 10.91 6.44416 10.207 7.33185 9.58795C7.75046 9.27321 8.19878 9.00006 8.67043 8.77238C9.67151 8.34028 10.3161 8.83367 11.2777 9.58815V9.09905C11.0164 9.04399 10.7848 8.89407 10.6276 8.67824C10.4703 8.46241 10.3986 8.19598 10.4263 7.93038C10.454 7.66478 10.5791 7.41886 10.7774 7.24009C10.9758 7.06133 11.2334 6.96239 11.5004 6.96239C11.7674 6.96239 12.025 7.06133 12.2234 7.24009C12.4217 7.41886 12.5468 7.66478 12.5745 7.93038C12.6022 8.19598 12.5305 8.46241 12.3733 8.67824C12.216 8.89407 11.9844 9.04399 11.7231 9.09905V9.58815C12.6847 8.83224 13.3289 8.34028 14.3304 8.77238C14.8017 9.00013 15.2496 9.27335 15.6677 9.58815C16.5501 10.2031 17.5496 10.8998 18.804 10.8998H18.8283C18.8642 10.8997 18.8996 10.9084 18.9315 10.9251C18.9633 10.9417 18.9907 10.9658 19.0112 10.9953C19.0317 11.0248 19.0447 11.0589 19.0492 11.0945C19.0537 11.1302 19.0494 11.1664 19.0369 11.2001H19.0387ZM11.5 8.67697C11.3745 8.67697 11.2518 8.63975 11.1475 8.57003C11.0431 8.5003 10.9618 8.40119 10.9137 8.28524C10.8657 8.16929 10.8531 8.0417 10.8776 7.91861C10.9021 7.79552 10.9626 7.68245 11.0513 7.59371C11.14 7.50496 11.2531 7.44453 11.3762 7.42004C11.4993 7.39556 11.6269 7.40812 11.7428 7.45615C11.8588 7.50418 11.9579 7.58551 12.0276 7.68987C12.0973 7.79422 12.1346 7.9169 12.1346 8.04241C12.1344 8.21065 12.0675 8.37196 11.9485 8.49093C11.8296 8.6099 11.6682 8.67681 11.5 8.67697ZM10.8996 14.1332C10.9207 13.8287 11.0555 13.5432 11.2773 13.3334V15.0591C11.042 14.8073 10.9076 14.4778 10.8996 14.1332ZM11.7227 13.3336C11.9445 13.5433 12.0794 13.8287 12.1004 14.1332C12.0924 14.4778 11.958 14.8073 11.7227 15.0591V13.3336Z" fill="#6B7280"/>
</svg>
