<svg width="22" height="22" viewBox="0 0 22 22" fill="none" xmlns="http://www.w3.org/2000/svg">
<g clip-path="url(#clip0_1_2384)">
<path d="M7.79164 2.29167C7.79164 1.02575 8.81739 0 10.0833 0C11.3492 0 12.375 1.02575 12.375 2.29167C12.375 3.55758 11.3492 4.58333 10.0833 4.58333C8.81739 4.58333 7.79164 3.55758 7.79164 2.29167ZM13.5831 8.69733C13.3558 6.87408 11.7984 5.5 9.96139 5.5C8.12439 5.5 6.56697 6.875 6.33964 8.69733L6.2773 9.19417L9.67447 11.4354C10.0961 11.7159 10.2098 12.2852 9.92839 12.7068C9.75239 12.9718 9.46089 13.1148 9.1648 13.1148C8.99064 13.1148 8.81372 13.0653 8.65697 12.9608L6.02247 11.2282L5.52105 15.2423C5.42389 16.0252 5.66589 16.8117 6.18839 17.4029C6.50005 17.7558 6.8988 18.0061 7.3333 18.1601V21.0824C7.3333 21.5884 7.74305 21.9991 8.24997 21.9991C8.75689 21.9991 9.16664 21.5884 9.16664 21.0824V18.3324H11V21.0824C11 21.5884 11.4097 21.9991 11.9166 21.9991C12.4236 21.9991 12.8333 21.5884 12.8333 21.0824V18.3324H14.6666C15.0581 18.3324 15.4064 18.084 15.5329 17.7146C15.6319 17.4277 16.5 14.8619 16.5 13.2907C16.5 11.3236 15.3468 9.51867 13.5831 8.69733Z" fill="#6B7280"/>
</g>
<defs>
<clipPath id="clip0_1_2384">
<rect width="22" height="22" fill="white"/>
</clipPath>
</defs>
</svg>
