<svg width="76" height="76" viewBox="0 0 76 76" fill="none" xmlns="http://www.w3.org/2000/svg">
<rect x="0.3" y="0.3" width="75.4" height="75.4" rx="7.7" fill="#E7ECE5" stroke="#E7ECE5" stroke-width="0.6"/>
<path fill-rule="evenodd" clip-rule="evenodd" d="M29.7923 26.7402H46.2083V31.8069H29.7923V26.7402ZM28.4263 33.0736H47.5783C49.8491 33.0736 51.6823 34.7709 51.6823 36.8736V44.4736H46.2103V49.5402H29.7943V44.4736H24.3223V36.8736C24.3223 34.7709 26.1554 33.0736 28.4263 33.0736ZM32.5293 47.0072H43.4733V40.6738H32.5293V47.0072ZM47.5796 38.1395C46.8272 38.1395 46.2116 37.5695 46.2116 36.8728C46.2116 36.1761 46.8272 35.6061 47.5796 35.6061C48.332 35.6061 48.9476 36.1761 48.9476 36.8728C48.9476 37.5695 48.332 38.1395 47.5796 38.1395Z" fill="#597F59"/>
</svg>
