<svg width="201" height="6" viewBox="0 0 201 6" fill="none" xmlns="http://www.w3.org/2000/svg">
<path d="M0.866667 3C0.866667 4.17821 1.82179 5.13333 3 5.13333C4.17821 5.13333 5.13333 4.17821 5.13333 3C5.13333 1.82179 4.17821 0.866667 3 0.866667C1.82179 0.866667 0.866667 1.82179 0.866667 3ZM195.867 3C195.867 4.17821 196.822 5.13333 198 5.13333C199.178 5.13333 200.133 4.17821 200.133 3C200.133 1.82179 199.178 0.866667 198 0.866667C196.822 0.866667 195.867 1.82179 195.867 3ZM3 3.4H198V2.6H3V3.4Z" fill="#131313"/>
</svg>
