<svg width="20" height="20" viewBox="0 0 20 20" fill="none" xmlns="http://www.w3.org/2000/svg">
<g clip-path="url(#clip0_1_2360)">
<path d="M13.9676 8.74767C14.3782 8.74879 14.785 8.66845 15.1644 8.51128C15.5438 8.35411 15.8882 8.12324 16.1777 7.83204L19.1856 4.82618C19.4235 4.58829 19.4453 4.20118 19.2188 3.95157C19.1619 3.88886 19.0929 3.83836 19.0159 3.80313C18.9389 3.7679 18.8556 3.74868 18.7709 3.74664C18.6863 3.74459 18.6021 3.75976 18.5235 3.79123C18.4449 3.8227 18.3735 3.86981 18.3137 3.9297L15.6328 6.6086C15.5428 6.69851 15.4208 6.74901 15.2936 6.74901C15.1663 6.74901 15.0443 6.69851 14.9543 6.6086C14.7672 6.42188 14.7774 6.10626 14.9641 5.91954L17.6332 3.2504C17.693 3.19057 17.7401 3.11921 17.7715 3.04065C17.803 2.96208 17.8181 2.87796 17.8161 2.79337C17.814 2.70878 17.7948 2.62549 17.7596 2.54854C17.7244 2.47159 17.674 2.40259 17.6113 2.34571C17.4982 2.24312 17.3508 2.18667 17.1981 2.18751C17.025 2.18763 16.8591 2.25648 16.7367 2.37892L14.0699 5.04532C13.9799 5.13523 13.8579 5.18572 13.7307 5.18572C13.6035 5.18572 13.4814 5.13523 13.3914 5.04532C13.2047 4.8586 13.2145 4.54298 13.4012 4.35626L16.0703 1.6879C16.1302 1.62807 16.1772 1.55671 16.2086 1.47815C16.2401 1.39959 16.2552 1.31546 16.2532 1.23087C16.2511 1.14628 16.2319 1.06299 16.1967 0.986037C16.1616 0.909088 16.1111 0.840085 16.0485 0.783212C15.9353 0.680619 15.7879 0.624169 15.6352 0.625009C15.4621 0.625214 15.2962 0.694049 15.1738 0.816415L12.168 3.82227C11.8768 4.11187 11.6459 4.45637 11.4887 4.83581C11.3315 5.21526 11.2512 5.62212 11.2524 6.03282V6.35431C11.2524 6.4365 11.2363 6.5179 11.2048 6.59384C11.1734 6.66979 11.1273 6.73878 11.0692 6.79688L9.67814 8.18829C9.66363 8.20282 9.64639 8.21434 9.62743 8.22221C9.60846 8.23007 9.58812 8.23412 9.56759 8.23412C9.54706 8.23412 9.52672 8.23007 9.50776 8.22221C9.48879 8.21434 9.47156 8.20282 9.45704 8.18829L2.68829 1.41915C2.57147 1.30219 2.41307 1.23628 2.24776 1.23584C2.08246 1.2354 1.92371 1.30047 1.80626 1.41681C1.21447 2.00313 0.898451 2.83087 0.898451 3.81017C0.894545 5.42735 1.74454 7.28673 3.11681 8.65704L6.4547 11.9949C6.92911 12.4684 7.57196 12.7343 8.2422 12.7344C8.45587 12.7345 8.66868 12.7072 8.8754 12.6531C8.92731 12.6395 8.98073 12.6326 9.03439 12.6324C9.19129 12.6325 9.34239 12.6918 9.45743 12.7984L9.90236 13.2094C10.0171 13.3266 10.0816 13.484 10.082 13.6481V13.8645C10.0809 14.3564 10.2742 14.8289 10.6199 15.1789L14.1375 18.7559L14.141 18.7598C14.5314 19.1501 15.0609 19.3694 15.613 19.3694C16.1651 19.3694 16.6946 19.15 17.085 18.7596C17.4753 18.3692 17.6946 17.8397 17.6946 17.2876C17.6946 16.7355 17.4752 16.206 17.0848 15.8156L11.8121 10.543C11.7976 10.5285 11.7861 10.5112 11.7782 10.4923C11.7703 10.4733 11.7663 10.453 11.7663 10.4324C11.7663 10.4119 11.7703 10.3916 11.7782 10.3726C11.7861 10.3536 11.7976 10.3364 11.8121 10.3219L13.2031 8.93087C13.2612 8.87278 13.3301 8.8267 13.406 8.79526C13.4819 8.76383 13.5632 8.74765 13.6453 8.74767H13.9676Z" fill="#6B7280"/>
<path d="M8.24238 13.9844C7.24173 13.9823 6.28225 13.5858 5.57207 12.8808L5.03066 12.3394C4.97208 12.281 4.89271 12.2482 4.80996 12.2482C4.72721 12.2482 4.64784 12.281 4.58926 12.3394L1.26894 15.6426C0.677148 16.2344 0.46582 17.1054 0.758789 17.9586C0.775186 18.0066 0.794626 18.0536 0.816992 18.0992C1.21113 18.9062 1.97598 19.375 2.81269 19.375C3.10044 19.3757 3.38547 19.3193 3.65127 19.2091C3.91706 19.0988 4.15834 18.9369 4.36113 18.7328L8.78926 14.2836C8.8079 14.2646 8.82217 14.2417 8.83107 14.2166C8.83998 14.1915 8.8433 14.1648 8.84082 14.1383V14.1281C8.83908 14.1037 8.83243 14.08 8.82127 14.0583C8.8101 14.0366 8.79465 14.0173 8.77586 14.0017C8.75706 13.9862 8.7353 13.9745 8.71189 13.9676C8.68848 13.9606 8.66391 13.9585 8.63965 13.9613C8.50772 13.9759 8.37512 13.9836 8.24238 13.9844Z" fill="#6B7280"/>
</g>
<defs>
<clipPath id="clip0_1_2360">
<rect width="20" height="20" fill="white"/>
</clipPath>
</defs>
</svg>
