<svg width="20" height="20" viewBox="0 0 20 20" fill="none" xmlns="http://www.w3.org/2000/svg">
<path d="M7.9 2.89065C6.48867 2.21682 4.51602 1.88674 1.875 1.87502C1.62593 1.87164 1.38174 1.94427 1.175 2.08322C1.00531 2.19792 0.866403 2.35256 0.770498 2.53354C0.674593 2.71452 0.62463 2.91629 0.625002 3.12111V14.2969C0.625002 15.0524 1.1625 15.6223 1.875 15.6223C4.65117 15.6223 7.43594 15.8817 9.10391 17.4582C9.12673 17.4799 9.15541 17.4944 9.18639 17.4999C9.21737 17.5054 9.24928 17.5017 9.27816 17.4892C9.30704 17.4767 9.33162 17.456 9.34883 17.4297C9.36605 17.4033 9.37515 17.3725 9.375 17.341V4.17268C9.37507 4.08383 9.35606 3.99601 9.31927 3.91514C9.28247 3.83427 9.22875 3.76224 9.16172 3.70393C8.77965 3.3773 8.35525 3.10374 7.9 2.89065ZM18.825 2.08205C18.6182 1.94344 18.374 1.87122 18.125 1.87502C15.484 1.88674 13.5113 2.21526 12.1 2.89065C11.6448 3.10335 11.2203 3.37638 10.8379 3.70236C10.771 3.76078 10.7174 3.83284 10.6807 3.91369C10.644 3.99454 10.625 4.08232 10.625 4.17111V17.3403C10.625 17.3705 10.6339 17.4001 10.6506 17.4252C10.6673 17.4504 10.6911 17.4701 10.719 17.4819C10.7469 17.4936 10.7776 17.4968 10.8073 17.4911C10.837 17.4855 10.8643 17.4712 10.8859 17.45C11.8887 16.4539 13.6484 15.6211 18.1266 15.6215C18.4581 15.6215 18.776 15.4898 19.0104 15.2554C19.2449 15.021 19.3766 14.703 19.3766 14.3715V3.12151C19.377 2.91628 19.3269 2.7141 19.2307 2.53282C19.1346 2.35153 18.9952 2.19672 18.825 2.08205Z" fill="#6B7280"/>
</svg>
